<svg width="14" height="8" viewBox="0 0 14 8" fill="none" xmlns="http://www.w3.org/2000/svg">
<path d="M11.8952 7.92437C11.6399 7.93502 11.4636 7.79708 11.2952 7.63301C9.82305 6.19897 8.34844 4.76686 6.87481 3.33426C6.72382 3.18745 6.57002 3.1902 6.4134 3.34249C4.9517 4.76395 3.49 6.18542 2.0278 7.60639C1.58377 8.03811 1.2356 8.03956 0.796051 7.61365C0.7141 7.53428 0.631652 7.45539 0.550695 7.37457C0.206005 7.03045 0.198058 6.65924 0.549702 6.31609C2.39484 4.51664 4.24295 2.72009 6.09305 0.925953C6.45711 0.573129 6.83855 0.573613 7.20212 0.926437C9.05222 2.72105 10.9003 4.5176 12.7455 6.31658C13.1065 6.66843 13.0976 7.03481 12.7375 7.39151C12.6218 7.50621 12.5046 7.61995 12.3859 7.73175C12.2498 7.86 12.0879 7.93115 11.8952 7.92486L11.8952 7.92437Z" fill="#444040"/>
</svg>
