<svg width="133" height="32" viewBox="0 0 133 32" fill="none" xmlns="http://www.w3.org/2000/svg">
<g clip-path="url(#clip0_175_701)">
<path d="M38.8535 30.4507L39.8691 29.25C40.788 30.0418 41.7085 30.4918 42.902 30.4918C43.9452 30.4918 44.6033 30.0143 44.6033 29.2637C44.6033 28.5818 44.2198 28.2126 42.4356 27.79C40.3907 27.3124 39.2386 26.7113 39.2386 24.9248C39.2386 23.2863 40.6116 22.1543 42.5185 22.1543C43.9176 22.1543 45.0298 22.5769 46.0039 23.355L45.0988 24.6243C44.2336 23.9835 43.3699 23.6418 42.4909 23.6418C41.5029 23.6418 40.9261 24.1468 40.9261 24.8028C40.9261 25.5397 41.3648 25.8677 43.2042 26.304C45.2354 26.7952 46.2923 27.5184 46.2923 29.1295C46.2923 30.9175 44.8794 31.9809 42.8621 31.9809C41.394 31.9809 40.0087 31.4759 38.855 30.4522L38.8535 30.4507Z" fill="white"/>
<path d="M48.1304 27.7909V22.291H49.8179V27.7222C49.8179 29.4965 50.7369 30.4516 52.2464 30.4516C53.756 30.4516 54.6611 29.5499 54.6611 27.7909V22.291H56.3486V27.7085C56.3486 30.5599 54.7301 31.994 52.2188 31.994C49.7075 31.994 48.1289 30.5614 48.1289 27.7909H48.1304Z" fill="white"/>
<path d="M58.6719 22.291H60.4698L63.3923 26.8084L66.3147 22.291H68.1127V31.8445H66.4252V24.9944L63.3923 29.4981H63.3371L60.3318 25.0219V31.846H58.6719V22.2925V22.291Z" fill="white"/>
<path d="M70.584 22.291H72.3819L75.3044 26.8084L78.2269 22.291H80.0248V31.8445H78.3373V24.9944L75.3044 29.4981H75.2492L72.2439 25.0219V31.846H70.584V22.2925V22.291Z" fill="white"/>
<path d="M82.5918 22.291H84.2793V31.8445H82.5918V22.291Z" fill="white"/>
<path d="M89.2049 23.8472H86.1582V22.291H93.9529V23.8472H90.9062V31.8445H89.2049V23.8472Z" fill="white"/>
<path d="M99.2656 30.5778L102.426 27.9049C103.685 26.8477 104.144 26.2618 104.144 25.4395C104.144 24.5394 103.501 24.0176 102.662 24.0176C101.823 24.0176 101.246 24.4738 100.537 25.3861L99.396 24.4997C100.275 23.2731 101.14 22.582 102.78 22.582C104.577 22.582 105.81 23.6774 105.81 25.3343C105.81 26.7699 105.037 27.5388 103.423 28.8691L101.535 30.4344H105.902V31.8426H99.2656V30.5778Z" fill="white"/>
<path d="M107.408 27.2769C107.408 24.6681 109.008 22.5566 111.421 22.5566C113.835 22.5566 115.409 24.6437 115.409 27.2769C115.409 29.9102 113.808 31.9987 111.395 31.9987C108.982 31.9987 107.408 29.9117 107.408 27.2769ZM113.742 27.2769C113.742 25.4767 112.811 24.0029 111.395 24.0029C109.979 24.0029 109.074 25.4385 109.074 27.2769C109.074 29.1153 109.992 30.5509 111.421 30.5509C112.851 30.5509 113.742 29.1031 113.742 27.2769Z" fill="white"/>
<path d="M116.668 30.5778L119.828 27.9049C121.088 26.8477 121.546 26.2618 121.546 25.4395C121.546 24.5394 120.904 24.0176 120.064 24.0176C119.225 24.0176 118.648 24.4738 117.94 25.3861L116.798 24.4997C117.677 23.2731 118.543 22.582 120.183 22.582C121.979 22.582 123.212 23.6774 123.212 25.3343C123.212 26.7699 122.439 27.5388 120.825 28.8691L118.937 30.4344H123.304V31.8426H116.668V30.5778Z" fill="white"/>
<path d="M124.707 30.5778L127.867 27.9049C129.127 26.8477 129.585 26.2618 129.585 25.4395C129.585 24.5394 128.943 24.0176 128.104 24.0176C127.264 24.0176 126.688 24.4738 125.979 25.3861L124.837 24.4997C125.716 23.2731 126.582 22.582 128.222 22.582C130.018 22.582 131.251 23.6774 131.251 25.3343C131.251 26.7699 130.478 27.5388 128.864 28.8691L126.976 30.4344H131.344V31.8426H124.707V30.5778Z" fill="white"/>
<path d="M37.8867 8.18651C37.8867 3.68591 41.2985 0 46.1877 0C49.1899 0 50.8728 1.13049 52.3502 2.57831L50.2577 4.97659C49.0304 3.86899 47.9841 3.21144 46.1647 3.21144C43.4816 3.21144 41.5471 5.42818 41.5471 8.18803C41.5471 10.9479 43.434 13.1631 46.1647 13.1631C47.9841 13.1631 49.0979 12.44 50.3497 11.3079L52.5788 13.6833C50.9419 15.4241 49.1224 16.3745 46.0512 16.3745C41.366 16.3745 37.8867 12.7786 37.8867 8.18803V8.18651Z" fill="white"/>
<path d="M75.7313 9.86004L69.6133 0.271484H73.7078L77.5062 6.62724L81.3721 0.271484H85.3516L79.2336 9.79292V16.1029H75.7313V9.86004Z" fill="white"/>
<path d="M106.435 3.48293H101.59V0.271484H114.78V3.48293H109.935V16.1029H106.433V3.48293H106.435Z" fill="white"/>
<path d="M116.078 8.18651C116.078 3.68591 119.648 0 124.56 0C129.472 0 132.998 3.64167 132.998 8.18651C132.998 12.7313 129.428 16.373 124.516 16.373C119.603 16.373 116.078 12.7313 116.078 8.18651ZM129.337 8.18651C129.337 5.47242 127.337 3.20992 124.516 3.20992C121.694 3.20992 119.74 5.42665 119.74 8.18651C119.74 10.9464 121.74 13.1616 124.562 13.1616C127.383 13.1616 129.337 10.9448 129.337 8.18651Z" fill="white"/>
<path d="M65.2454 10.4489C67.2704 9.7029 68.6572 8.09642 68.6572 5.541C68.6572 4.00317 68.1801 2.75978 67.2919 1.87644C66.2456 0.835966 64.6762 0.271484 62.6528 0.271484H55.375V3.41427H62.3567C64.0626 3.41427 65.1088 4.18319 65.1088 5.67678C65.1088 7.05594 64.1316 7.96064 62.4257 7.96064H55.375V16.1029H58.8773V11.0363H61.5835L65.0398 16.1029H69.1328L65.2438 10.4489H65.2454Z" fill="white"/>
<path d="M94.0397 0.271484H87.5352V3.41427H93.7436C95.4941 3.41427 96.5863 4.25184 96.5863 5.81256C96.5863 7.21461 95.5631 8.25508 93.8111 8.25508H87.5352V16.1029H91.0375V11.3536H93.6992C97.269 11.3536 100.135 9.45423 100.135 5.78967C100.135 2.50958 97.8382 0.271484 94.0397 0.271484Z" fill="white"/>
<path d="M25.278 12.367V6.89453H6.45312V17.8394H8.25109H21.679V21.626H10.0506V19.7327H6.45312V25.2051H25.278V14.2603H23.4785H10.0506V10.4736H21.679V12.367H25.278Z" fill="white"/>
<path d="M31.7312 12.3666V0.271484H0V31.8275H31.7312V19.7324H28.1338V28.2499H3.59746V3.84908H28.1338V12.3666H31.7312Z" fill="white"/>
</g>
<defs>
<clipPath id="clip0_175_701">
<rect width="133" height="32" fill="white"/>
</clipPath>
</defs>
</svg>
