<svg width="398" height="96" viewBox="0 0 398 96" fill="none" xmlns="http://www.w3.org/2000/svg">
<g clip-path="url(#clip0_175_638)">
<path d="M116.047 90.5674L119.08 86.9964C121.825 89.3514 124.574 90.6899 128.139 90.6899C131.255 90.6899 133.22 89.2697 133.22 87.0373C133.22 85.009 132.075 83.9109 126.746 82.6541C120.638 81.2338 117.197 79.4461 117.197 74.1327C117.197 69.2594 121.298 65.8926 126.993 65.8926C131.172 65.8926 134.494 67.1495 137.404 69.4636L134.7 73.2388C132.116 71.333 129.536 70.3166 126.911 70.3166C123.96 70.3166 122.237 71.8185 122.237 73.7697C122.237 75.9613 123.548 76.9368 129.042 78.2345C135.108 79.6956 138.265 81.8464 138.265 86.638C138.265 91.9559 134.045 95.1185 128.02 95.1185C123.635 95.1185 119.497 93.6166 116.051 90.572L116.047 90.5674Z" fill="white"/>
<path d="M143.757 82.6545V66.2969H148.797V82.4503C148.797 87.7274 151.541 90.5679 156.05 90.5679C160.559 90.5679 163.262 87.8862 163.262 82.6545V66.2969H168.303V82.4095C168.303 90.8901 163.469 95.1553 155.968 95.1553C148.467 95.1553 143.752 90.8946 143.752 82.6545H143.757Z" fill="white"/>
<path d="M175.236 66.2969H180.607L189.335 79.7324L198.064 66.2969H203.434V94.7106H198.394V74.3373L189.335 87.732H189.17L180.194 74.419V94.7152H175.236V66.3014V66.2969Z" fill="white"/>
<path d="M210.818 66.2969H216.189L224.917 79.7324L233.646 66.2969H239.016V94.7106H233.976V74.3373L224.917 87.732H224.752L215.776 74.419V94.7152H210.818V66.3014V66.2969Z" fill="white"/>
<path d="M246.686 66.2969H251.726V94.7106H246.686V66.2969Z" fill="white"/>
<path d="M266.44 70.9251H257.34V66.2969H280.621V70.9251H271.521V94.7106H266.44V70.9251Z" fill="white"/>
<path d="M296.484 90.9431L305.923 82.9934C309.685 79.8489 311.055 78.1065 311.055 75.6608C311.055 72.9837 309.135 71.4319 306.629 71.4319C304.123 71.4319 302.4 72.7886 300.283 75.502L296.874 72.8657C299.499 69.2176 302.084 67.1621 306.982 67.1621C312.347 67.1621 316.031 70.42 316.031 75.3477C316.031 79.6175 313.722 81.9044 308.902 85.8611L303.261 90.5166H316.306V94.7047H296.484V90.9431Z" fill="white"/>
<path d="M320.807 81.1288C320.807 73.3697 325.586 67.0898 332.793 67.0898C340.001 67.0898 344.702 73.2971 344.702 81.1288C344.702 88.9605 339.923 95.1724 332.715 95.1724C325.508 95.1724 320.807 88.9651 320.807 81.1288ZM339.726 81.1288C339.726 75.7746 336.945 71.3914 332.715 71.3914C328.486 71.3914 325.783 75.6612 325.783 81.1288C325.783 86.5965 328.523 90.8663 332.793 90.8663C337.064 90.8663 339.726 86.5602 339.726 81.1288Z" fill="white"/>
<path d="M348.463 90.9431L357.902 82.9934C361.664 79.8489 363.034 78.1065 363.034 75.6608C363.034 72.9837 361.114 71.4319 358.608 71.4319C356.101 71.4319 354.378 72.7886 352.261 75.502L348.852 72.8657C351.478 69.2176 354.062 67.1621 358.96 67.1621C364.326 67.1621 368.01 70.42 368.01 75.3477C368.01 79.6175 365.701 81.9044 360.88 85.8611L355.24 90.5166H368.285V94.7047H348.463V90.9431Z" fill="white"/>
<path d="M372.471 90.9431L381.91 82.9934C385.672 79.8489 387.042 78.1065 387.042 75.6608C387.042 72.9837 385.122 71.4319 382.615 71.4319C380.109 71.4319 378.386 72.7886 376.269 75.502L372.86 72.8657C375.486 69.2176 378.07 67.1621 382.968 67.1621C388.334 67.1621 392.018 70.42 392.018 75.3477C392.018 79.6175 389.708 81.9044 384.888 85.8611L379.248 90.5166H392.293V94.7047H372.471V90.9431Z" fill="white"/>
<path d="M113.162 24.3482C113.162 10.9626 123.353 0 137.956 0C146.923 0 151.949 3.36228 156.362 7.66835L150.112 14.8013C146.446 11.5071 143.321 9.55141 137.887 9.55141C129.873 9.55141 124.095 16.1444 124.095 24.3527C124.095 32.561 129.731 39.1494 137.887 39.1494C143.321 39.1494 146.648 36.9987 150.387 33.6319L157.045 40.6967C152.156 45.874 146.721 48.7009 137.548 48.7009C123.554 48.7009 113.162 38.006 113.162 24.3527V24.3482Z" fill="white"/>
<path d="M226.197 29.3247L207.924 0.806641H220.153L231.499 19.7098L243.045 0.806641H254.931L236.658 29.1251V47.8922H226.197V29.3247Z" fill="white"/>
<path d="M317.904 10.3581H303.434V0.806641H342.83V10.3581H328.36V47.8922H317.899V10.3581H317.904Z" fill="white"/>
<path d="M346.705 24.3482C346.705 10.9626 357.368 0 372.039 0C386.711 0 397.241 10.831 397.241 24.3482C397.241 37.8653 386.578 48.6963 371.906 48.6963C357.235 48.6963 346.705 37.8653 346.705 24.3482ZM386.308 24.3482C386.308 16.276 380.333 9.54687 371.906 9.54687C363.48 9.54687 357.643 16.1398 357.643 24.3482C357.643 32.5565 363.618 39.1449 372.044 39.1449C380.47 39.1449 386.308 32.5519 386.308 24.3482Z" fill="white"/>
<path d="M194.878 31.0762C200.926 28.8574 205.068 24.0794 205.068 16.4791C205.068 11.9053 203.643 8.20728 200.99 5.58008C197.865 2.48551 193.178 0.806641 187.134 0.806641H165.396V10.1539H186.249C191.345 10.1539 194.47 12.4408 194.47 16.883C194.47 20.9848 191.551 23.6756 186.456 23.6756H165.396V47.8922H175.857V32.8232H183.94L194.264 47.8922H206.488L194.873 31.0762H194.878Z" fill="white"/>
<path d="M280.877 0.806641H261.449V10.1539H279.993C285.221 10.1539 288.483 12.6449 288.483 17.2868C288.483 21.4567 285.427 24.5513 280.194 24.5513H261.449V47.8922H271.91V33.7669H279.86C290.522 33.7669 299.082 28.1178 299.082 17.2187C299.082 7.46314 292.222 0.806641 280.877 0.806641Z" fill="white"/>
<path d="M75.5039 36.7818V20.5059H19.2773V53.0578H24.6475H64.7544V64.3198H30.0223V58.6888H19.2773V74.9648H75.5039V42.4128H70.1292H30.0223V31.1508H64.7544V36.7818H75.5039Z" fill="white"/>
<path d="M94.7755 36.7818V0.808594H0V94.662H94.7755V58.6888H84.0306V84.0216H10.745V11.449H84.0306V36.7818H94.7755Z" fill="white"/>
</g>
<defs>
<clipPath id="clip0_175_638">
<rect width="397.247" height="95.1738" fill="white"/>
</clipPath>
</defs>
</svg>
