<svg width="25" height="25" viewBox="0 0 25 25" fill="none" xmlns="http://www.w3.org/2000/svg">
<path d="M24.0444 12.0361C24.0181 14.6524 23.9222 17.263 23.5989 19.8604C23.3471 21.8921 21.7308 23.4201 19.7047 23.6362C14.6094 24.1757 9.51794 24.1719 4.42269 23.6362C2.37407 23.4201 0.746442 21.8188 0.524665 19.757C-0.0316591 14.6016 -0.0316591 9.44623 0.524665 4.29084C0.750201 2.20086 2.37595 0.618348 4.46216 0.400329C9.54238 -0.131562 14.6188 -0.135321 19.6972 0.400329C21.7308 0.614589 23.349 2.13508 23.5989 4.16491C23.9222 6.77738 24.0199 9.40488 24.0444 12.0361ZM13.26 9.83528C13.26 9.4124 13.2769 8.98952 13.2562 8.56852C13.2261 7.99904 13.0138 7.77914 12.4443 7.74343C11.6963 7.69832 10.9463 7.67953 10.1983 7.73215C9.99157 7.74719 9.79798 7.79605 9.63071 7.92386C9.34691 8.14188 9.36382 8.28848 9.70589 8.42192C10.0122 8.5422 10.2171 8.74895 10.2415 9.07222C10.2979 9.80521 10.3505 10.542 10.2284 11.2731C10.1946 11.4798 10.2096 11.7636 9.95774 11.8294C9.69649 11.8989 9.54989 11.6509 9.39014 11.4855C9.31496 11.4065 9.25294 11.3144 9.18903 11.2261C8.61392 10.4405 8.13653 9.59659 7.78319 8.6888C7.62907 8.29411 7.37722 8.06482 6.95058 8.0573C6.27961 8.0479 5.60864 8.03475 4.93579 8.04226C4.50915 8.0479 4.35879 8.26216 4.52982 8.65309C5.41317 10.681 6.3999 12.6545 7.86213 14.3385C9.07439 15.7349 10.6231 16.3909 12.48 16.2838C13.0288 16.2518 13.1848 16.1052 13.2656 15.5545C13.3032 15.3064 13.3389 15.0583 13.4009 14.8159C13.5456 14.2539 13.8407 14.1543 14.2636 14.549C14.6733 14.9324 15.0455 15.3572 15.4364 15.7613C15.7522 16.0883 16.1318 16.2931 16.5942 16.3025C17.2332 16.3157 17.8741 16.3213 18.515 16.3213C18.8307 16.3213 19.1672 16.3119 19.3363 15.9868C19.5036 15.6598 19.31 15.3872 19.1333 15.1222C18.6221 14.3629 17.9474 13.7521 17.314 13.1056C16.8967 12.6789 16.8723 12.5023 17.2125 12.0042C17.5752 11.4761 17.9643 10.9667 18.3383 10.4442C18.6935 9.94993 19.0751 9.46878 19.2874 8.88615C19.5073 8.28284 19.3758 8.07421 18.7292 8.0573C18.0263 8.04038 17.3234 8.07234 16.6223 8.04602C16.1337 8.02723 15.8536 8.20014 15.677 8.67941C15.2898 9.72815 14.7297 10.6867 13.9723 11.5174C13.8482 11.6527 13.7317 11.8501 13.5175 11.7881C13.2806 11.7204 13.29 11.4817 13.2525 11.2825C13.1641 10.7994 13.2337 10.3145 13.2619 9.82964L13.26 9.83528Z" fill="white"/>
</svg>
